<?xml version="1.0" encoding="utf-8"?>
<!-- Generator: Adobe Illustrator 24.1.1, SVG Export Plug-In . SVG Version: 6.00 Build 0)  -->
<svg version="1.1" id="Layer_1" xmlns="http://www.w3.org/2000/svg" xmlns:xlink="http://www.w3.org/1999/xlink" x="0px" y="0px"
	 viewBox="0 0 80 56" style="enable-background:new 0 0 80 56;" xml:space="preserve">
<style type="text/css">
	.st0{fill:#7B6C53;}
</style>
<path class="st0" d="M74.9,22.9H18.3L33.5,8.8c1-0.9,1.6-2.2,1.6-3.5c0-1.4-0.4-2.7-1.4-3.6c-1.9-2.1-5.1-2.2-7.2-0.3L1.4,24.8
	c-1.8,1.6-1.9,4.4,0,6.4l25.2,23.4c1,0.9,2.2,1.4,3.5,1.4c1.4,0,2.7-0.5,3.7-1.6c1.9-2.1,1.8-5.3-0.3-7.2L18.3,33.1h56.6
	c2.8,0,5.1-2.3,5.1-5.1S77.7,22.9,74.9,22.9z"/>
</svg>
