<?xml version="1.0" encoding="utf-8"?>
<!-- Generator: Adobe Illustrator 24.1.1, SVG Export Plug-In . SVG Version: 6.00 Build 0)  -->
<svg version="1.1" xmlns="http://www.w3.org/2000/svg" xmlns:xlink="http://www.w3.org/1999/xlink" x="0px" y="0px"
	 viewBox="0 0 200 200" style="enable-background:new 0 0 200 200;" xml:space="preserve">
<style type="text/css">
	.st0{display:none;}
	.st1{display:inline;fill:#777664;}
	.st2{display:inline;fill:#FFFFFF;}
	.st3{fill:#7B6C53;}
</style>
<g id="Layer_1" class="st0">
	
		<image style="overflow:visible;" width="128" height="128" xlink:href="E8EB97AF.jpg"  transform="matrix(1 0 0 1 35.6856 35.786)">
	</image>
	<path class="st1" d="M135.7,73c-1.2-1.3-2.9-3.4-4.8-6.1c-4.8-6.8-5.6-10.4-10-15.1c-1.3-1.4-3.2-3.2-5.9-5
		c-3.7,0.5-6.3,1.7-8.1,2.8C98.8,54.8,95,65.8,96.4,78.1c-4.3,0.7-10.5,2.1-17.5,5.5c-6.7,3.2-16.3,7.8-22.5,18.6
		c-5.6,9.8-5.4,19.2-5.2,22.3c0.2,4.1,0.4,9,3.3,13.8c1.5,2.5,5,7,16.8,11.1c24.6,8.6,46.2,2.1,50.7,0.7c8.4-2.7,13.1-5.8,16.4-8.7
		c3.6-3.2,9-8,10-15.7c0.5-4.1-0.9-7.7-3.7-14.8c-2.2-5.6-4.6-11.5-10-17.7c-2.5-2.8-5.5-6.1-10.7-8.5c-3.5-1.6-6.8-2.2-9-2.4
		c0.9-1.6,2.6-4,5.2-5.9C126.7,71.4,134.1,72.7,135.7,73z"/>
	<path class="st2" d="M95.8,77c0.9,1.4,3.1,4.2,7,5.7c5.6,2.1,10.8-0.1,12.1-0.6c0.4-0.2,0.6-0.3,0.8-0.4c0,0.7,0,1.4,0,2.1
		c2.3,0.5,5.4,1.5,8.8,3.4c3.1,1.7,5.4,3.7,7,5.2c0.1,0.3,0.8,2.3-0.4,4.2c-0.9,1.5-2.4,2-2.8,2.1c-0.8-1.6-2.3-3.9-4.8-6.1
		c-3-2.6-6.1-3.8-7.9-4.4c2.7,2,4.3,4,5.2,5.5c0.8,1.2,1.2,2,3,5.9c1.2,2.5,2.1,4.5,2.8,5.7c-0.3,1.1-0.7,1.9-1.1,2
		c-2.2,0.7-4.6,0.4-7.6,0c0.2-1.7,0.2-4.8-0.9-8.3c-0.4-1.1-1.5-4.2-4.3-7.2c-1-1.1-2-1.9-2.7-2.4c-1.4,0.3-3.8,0.7-6.6,0
		c-2-0.4-3.5-1.2-4.2-1.6c-1.5-0.8-4.2-2.4-5.2-5.4c-0.1-0.2-1.3-3.9,0.4-5.2C94.8,77.1,95.3,77,95.8,77z"/>
	<path class="st2" d="M86.8,94.8c0.7,0,1.7,0.1,2.3,0.8c0.6,0.7,0.6,1.6,0.6,2c0,2.6,0.9,6.3,2.6,8.6c0.5,0.6,1.9,2.5,4.2,2.9
		c1.5,0.2,2.4-0.3,4,0.3c0.5,0.2,0.9,0.4,1.2,0.6c0.8,0.5,1,1.6,0.6,2.4c-0.1,0.2-0.3,0.5-0.5,0.8c-1.2,1.8-2.6,2-4.6,3.6
		c-1.7,1.3-2.8,2.2-3.4,3.6c-0.6,1.5,0,2.3,0.5,6.6c0.4,3.4,0.6,5.1-0.2,5.7c-1.6,1.2-5.8-1.6-6.4-2.1c-3.7-2.5-4-4.7-6.3-4.9
		c-1.7-0.2-3.3,0.9-4.9,2c-2.2,1.5-2.8,2.9-4.8,3.1c-0.3,0-1.4,0.1-2-0.5c-0.5-0.6-0.4-1.4-0.2-2.6c0.6-3.5,1.3-4.3,1.4-6
		c0-0.6,0.1-2.3-0.8-4c-1.4-2.8-3.6-2.9-4.3-5.5c-0.1-0.5-0.4-1.7,0.2-2.7c0.6-0.9,1.8-1,3.1-1.2c3.7-0.5,5.6-0.8,6.6-1.3
		c1.5-0.7,2.5-2.3,4.5-5.4c2-3.1,2.7-5.2,5-6.1C85.9,94.9,86.4,94.8,86.8,94.8z"/>
</g>
<g id="Layer_2">
	<g>
		<path class="st3" d="M184,119.4c-4.1-10.4-8.6-21.6-18.8-33.1c-4.6-5.2-10.3-11.5-20-15.9c-6-2.7-11.5-3.9-15.5-4.4
			c0,1.1,0,2.1,0.1,3.2c4.3,1,10.2,2.9,16.5,6.5c5.7,3.2,10.1,6.9,13.1,9.8c0.2,0.5,1.4,4.3-0.8,7.9c-1.7,2.8-4.5,3.7-5.2,3.9
			c-1.5-2.9-4.3-7.3-9-11.5c-5.6-4.9-11.4-7.2-14.7-8.2c5,3.8,8,7.6,9.8,10.4c1.5,2.3,2.2,3.8,5.6,11c2.2,4.6,4,8.4,5.2,10.8
			c-0.5,2-1.3,3.5-2.2,3.8c-4.1,1.4-8.5,0.8-14.2,0.1c0.3-3.2,0.5-8.9-1.8-15.5c-0.7-2-2.8-7.8-8-13.5c-1.9-2-3.7-3.5-5-4.5
			c-2.5,0.6-7.1,1.2-12.4,0.1c-3.8-0.8-6.5-2.2-7.8-2.9c-2.8-1.6-7.8-4.4-9.8-10c-0.1-0.2-1.6-4.6-0.6-7.7c-7.5,1.6-17,4.3-27.4,9.2
			c-12.5,6-30.5,14.6-42.1,34.8c-10.5,18.3-10,36-9.8,41.7c0.3,7.7,0.7,16.8,6.1,25.8c2.9,4.7,9.4,13.1,31.5,20.9
			c46,16.2,86.5,3.9,94.9,1.2c15.7-5.1,24.4-10.9,30.7-16.4c6.8-6,16.9-14.9,18.8-29.4C191.9,139.5,189.2,132.8,184,119.4z
			 M104.5,122.5c-0.2,0.5-0.5,0.9-0.9,1.4c-2.3,3.3-4.8,3.8-8.6,6.8c-3.3,2.5-5.3,4.1-6.3,6.7c-1.1,2.9,0,4.3,0.9,12.3
			c0.7,6.3,1,9.5-0.4,10.6c-3,2.3-10.8-3.1-12-3.9c-6.9-4.7-7.4-8.8-11.7-9.2c-3.3-0.3-6.3,1.7-9.1,3.7c-4,2.8-5.3,5.5-9,5.8
			c-0.6,0.1-2.6,0.2-3.7-1c-1-1-0.8-2.6-0.4-4.9c1.1-6.5,2.4-8,2.6-11.3c0.1-1.1,0.1-4.2-1.4-7.4c-2.5-5.3-6.8-5.4-8.1-10.4
			c-0.2-0.9-0.8-3.2,0.4-5c1.1-1.7,3.3-1.9,5.9-2.3c7-1,10.4-1.5,12.4-2.5c2.7-1.3,4.6-4.2,8.4-10.1c3.7-5.7,5-9.7,9.4-11.4
			c1.2-0.4,2.2-0.6,2.9-0.6c1.4,0,3.2,0.2,4.3,1.4c1.1,1.2,1,2.9,1,3.7c-0.1,4.9,1.7,11.9,4.9,16c0.8,1.1,3.6,4.7,7.9,5.4
			c2.7,0.4,4.6-0.6,7.5,0.5c0.9,0.3,1.6,0.7,2.2,1.2C104.9,119,105.3,120.9,104.5,122.5z"/>
		<path class="st3" d="M105.5,67.1c10.4,3.9,20.3-0.1,22.7-1.1c0.1,0,0.2-0.1,0.3-0.1c1.7-3.1,4.8-7.4,9.8-11
			c12.1-8.7,26-6.3,29-5.7c-2.2-2.5-5.4-6.4-9-11.5c-8.9-12.7-10.6-19.4-18.8-28.2c-2.4-2.6-6-6-11-9.4c-6.9,0.9-11.8,3.2-15.1,5.3
			c-15.1,9.5-22.2,30-19.7,52.8C95.7,60.9,99.5,64.8,105.5,67.1z"/>
	</g>
</g>
</svg>
