<?xml version="1.0" encoding="utf-8"?>
<!-- Generator: Adobe Illustrator 24.1.1, SVG Export Plug-In . SVG Version: 6.00 Build 0)  -->
<svg version="1.1" id="Layer_1" xmlns="http://www.w3.org/2000/svg" xmlns:xlink="http://www.w3.org/1999/xlink" x="0px" y="0px" viewBox="0 0 850.3 266.4" style="enable-background:new 0 0 850.3 266.4;" xml:space="preserve" preserveAspectRatio="none">
<style type="text/css">
	.st0{fill:#FFF9E5;}
</style>
<path class="st0" d="M1.2,173.8c-1-7.5-5.1-42.3,12-75c22.1-42.3,68-59.9,100-69c127-36,215.6-33.5,477-23c33,1.3,159.4,10.5,207,51
	c10.6,9,61.4,49.9,52,110c-9.2,58.3-69.7,84.9-77,88c-15.1,6.3-32.7,13.5-74,9c-73-8-104.4-22.4-157-31c-53.6-8.8-100.8-1.1-159,3
	c-94.2,6.6-122,23.9-233,29c-57.6,2.7-87.2-3.1-112-27C12.2,214.8,2.3,182.2,1.2,173.8z"/>
</svg>
