<?xml version="1.0" encoding="utf-8"?>
<!-- Generator: Adobe Illustrator 24.1.1, SVG Export Plug-In . SVG Version: 6.00 Build 0)  -->
<svg version="1.1" id="Layer_1" xmlns="http://www.w3.org/2000/svg" xmlns:xlink="http://www.w3.org/1999/xlink" x="0px" y="0px"
	 viewBox="0 0 50 40.2" style="enable-background:new 0 0 50 40.2;" xml:space="preserve">
<style type="text/css">
	.st0{fill:#19AD5E;}
	.st1{fill:#FFFFFF;}
</style>
<g>
	<path class="st0" d="M14.8,39.1c-1.9,0-3.7-0.9-4.8-2.5L1.5,24.4c-0.3-0.4-0.7-1.4,0-2.7c0.6-1.1,1.8-2.3,3.3-3.3
		c0.7-0.5,2.6-1.6,4.3-1.6c1.1,0,1.7,0.5,2,1l3.6,5.1c2.6-4.5,5.6-8.4,8.9-11.6c2.9-2.9,6.1-5.2,9.5-6.9c5.7-2.9,10-3.1,10.1-3.1
		l3.4-0.1l-2.7,2c-12.7,9.6-21.8,28.3-23.6,32.1c-0.1,0.2-0.2,0.5-0.3,0.7l0,0l-0.2,0.4L19.3,37c-0.3,0.4-0.7,0.8-1.1,1.1
		C17.2,38.8,16,39.1,14.8,39.1z"/>
	<path class="st1" d="M14.8,38c0.9,0,1.9-0.3,2.7-0.9c0.6-0.4,1.1-1,1.4-1.6l0,0l0,0c0.1-0.2,0.2-0.4,0.3-0.6
		c1.7-3.8,11-22.8,23.9-32.5c0,0-16.3,0.4-28.4,22.5l-4.6-6.5c-0.2-0.3-0.6-0.5-1.1-0.5c-2.6,0-8,4.2-6.7,6L10.9,36
		C11.8,37.3,13.3,38,14.8,38 M14.8,40.2c-2.3,0-4.4-1.1-5.7-3L0.6,25C0.2,24.4,0,23.7,0,22.9c0-0.6,0.2-1.1,0.5-1.7
		c0.9-1.8,2.9-3.2,3.7-3.7c1-0.7,3-1.8,4.9-1.8c1.3,0,2.3,0.5,2.9,1.4l2.6,3.7c2.5-4,5.2-7.4,8.2-10.3c3-2.9,6.3-5.3,9.7-7.1
		c6-3.1,10.4-3.2,10.6-3.2L50,0l-5.4,4.1c-12.4,9.4-21.5,27.8-23.2,31.6c-0.1,0.2-0.2,0.5-0.3,0.7l-0.8,1.2l-0.6,0.7
		c-0.2,0.2-0.5,0.4-0.7,0.6C17.6,39.8,16.3,40.2,14.8,40.2z"/>
</g>
</svg>
