<?xml version="1.0" encoding="utf-8"?>
<!-- Generator: Adobe Illustrator 24.1.2, SVG Export Plug-In . SVG Version: 6.00 Build 0)  -->
<svg version="1.1" id="Layer_1" xmlns="http://www.w3.org/2000/svg" xmlns:xlink="http://www.w3.org/1999/xlink" x="0px" y="0px"
	 viewBox="0 0 75.2 65.3" style="enable-background:new 0 0 75.2 65.3;" xml:space="preserve" preserveAspectRatio="none">
<style type="text/css">
	.st0{fill:#19AD5E;}
</style>
<path class="st0" d="M23.1,41.2l-8.4-12c-0.4-0.6-1.2-0.9-2.1-0.9c-4.8,0-14.7,7.6-12.3,11l15.6,22.3c1.7,2.4,4.5,3.8,7.2,3.8
	c1.7,0,3.5-0.5,5-1.6c1.1-0.8,2-1.8,2.6-2.9l0,0l0-0.1c0.2-0.4,0.4-0.7,0.5-1.1C34.6,52.7,51.5,17.9,75.2,0
	C75.2,0,45.4,0.8,23.1,41.2z"/>
</svg>
