<?xml version="1.0" encoding="utf-8"?>
<!-- Generator: Adobe Illustrator 24.1.2, SVG Export Plug-In . SVG Version: 6.00 Build 0)  -->
<svg version="1.1" id="Layer_1" xmlns="http://www.w3.org/2000/svg" xmlns:xlink="http://www.w3.org/1999/xlink" x="0px" y="0px"
	 viewBox="0 0 32 32" style="enable-background:new 0 0 32 32;" xml:space="preserve">
<style type="text/css">
	.st0{fill:#FFF9E5;}
	.st1{fill:#7B6C53;}
</style>
<path class="st0" d="M30.4,28.9c-1.8,4.3-24.2,3.9-27.4,0C0.2,25.5-1.9,5.8,3,2c1.4-1,24.4-4,27.4,0.1C32.4,4.9,32.7,23.4,30.4,28.9
	z"/>
<g>
	<path class="st1" d="M6.6,17.7c-0.7,0-1.4-0.5-1.5-1.3c-0.1-0.8,0.5-1.6,1.3-1.7c5.1-0.7,13.2-0.5,19.1,0c0.8,0.1,1.4,0.8,1.4,1.6
		c-0.1,0.8-0.8,1.4-1.6,1.4c-5.7-0.4-13.6-0.7-18.5,0C6.7,17.7,6.7,17.7,6.6,17.7z"/>
</g>
<g>
	<path class="st1" d="M6.6,23.7c-0.7,0-1.4-0.5-1.5-1.3c-0.1-0.8,0.5-1.6,1.3-1.7c5.1-0.7,13.2-0.5,19.1,0c0.8,0.1,1.4,0.8,1.4,1.6
		c-0.1,0.8-0.8,1.4-1.6,1.4c-5.7-0.4-13.6-0.7-18.5,0C6.7,23.7,6.7,23.7,6.6,23.7z"/>
</g>
<g>
	<path class="st1" d="M6.6,11.7c-0.7,0-1.4-0.5-1.5-1.3C5,9.6,5.6,8.8,6.4,8.7c5.1-0.7,13.2-0.5,19.1,0c0.8,0.1,1.4,0.8,1.4,1.6
		c-0.1,0.8-0.8,1.4-1.6,1.4c-5.7-0.4-13.6-0.7-18.5,0C6.7,11.7,6.7,11.7,6.6,11.7z"/>
</g>
</svg>
