<?xml version="1.0" encoding="utf-8"?>
<!-- Generator: Adobe Illustrator 24.1.2, SVG Export Plug-In . SVG Version: 6.00 Build 0)  -->
<svg version="1.1" id="Layer_1" xmlns="http://www.w3.org/2000/svg" xmlns:xlink="http://www.w3.org/1999/xlink" x="0px" y="0px"
	 viewBox="0 0 32 32" style="enable-background:new 0 0 32 32;" xml:space="preserve">
<style type="text/css">
	.st0{fill:#FFF9E5;}
	.st1{fill:#7B6C53;}
</style>
<path class="st0" d="M30.4,28.9c-1.8,4.3-24.2,3.9-27.4,0C0.2,25.5-1.9,5.8,3,2c1.4-1,24.4-4,27.4,0.1C32.4,4.9,32.7,23.4,30.4,28.9
	z"/>
<g>
	<path class="st1" d="M16,13.9l5.2-5.6c0.4-0.4,0.8-0.6,1.4-0.6c0.9,0,1.8,0.6,1.8,1.4c0,0.3-0.1,0.6-0.4,0.8l-6,6.1l6.1,6.2
		c0.3,0.2,0.4,0.5,0.4,0.8c0,0.8-0.9,1.4-1.8,1.4c-0.6,0-1.1-0.2-1.4-0.6L16,18.1l-5.4,5.7c-0.4,0.4-0.8,0.6-1.4,0.6
		c-0.9,0-1.8-0.6-1.8-1.4c0-0.3,0.1-0.6,0.4-0.8L14,16l-6-6.2C7.7,9.6,7.5,9.3,7.5,9c0-0.8,0.9-1.4,1.8-1.4c0.6,0,1.1,0.2,1.4,0.6
		L16,13.9z"/>
</g>
</svg>
