<?xml version="1.0" encoding="utf-8"?>
<!-- Generator: Adobe Illustrator 24.0.2, SVG Export Plug-In . SVG Version: 6.00 Build 0)  -->
<svg version="1.1" xmlns="http://www.w3.org/2000/svg" xmlns:xlink="http://www.w3.org/1999/xlink" x="0px" y="0px"
	 viewBox="0 0 32 32" style="enable-background:new 0 0 32 32;" xml:space="preserve">
<style type="text/css">
	.st0{display:none;}
	.st1{display:inline;opacity:0.5;}
	.st2{fill:#FF1D25;}
	.st3{display:inline;}
	.st4{opacity:0.5;}
	.st5{fill:#FF0000;}
	.st6{opacity:0.5;fill:none;stroke:#FF0000;stroke-width:0.25;stroke-miterlimit:10;}
	.st7{opacity:0.5;fill:#FF0000;}
	.st8{display:inline;fill:#FF0000;}
	.st9{fill:#7CC9C3;}
</style>
<g id="Layer_1" class="st0">
	
		<image style="display:inline;overflow:visible;" width="168" height="151" xlink:href="232D1056.jpg"  transform="matrix(0.3709 0 0 0.3709 -15.5836 -11)">
	</image>
</g>
<g id="Layer_2" class="st0">
	<g class="st1">
		<path class="st2" d="M2.3,25.6c-0.1-0.3-0.1-0.7,0.1-1l0-0.1l0,0l0,0l0-0.1l0.2-0.3L3,23.7c0.2-0.3,0.4-0.5,0.6-0.8
			c0.4-0.6,0.5-1,0.7-1.7c0.4-1.3,0.6-2.6,0.9-4c0.3-1.4,0.5-2.7,1-4.1c0.4-1.4,1-2.8,1.9-4c0.9-1.3,2.2-2.3,3.6-3
			c1.4-0.7,3-0.9,4.6-0.7c1.6,0.2,3,0.9,4.2,1.8c1.2,0.9,2.1,2,2.8,3.3l0,0L23,10.2c1,0,1.9,0.4,2.7,0.7c0.8,0.4,1.6,0.9,2.3,1.5
			c1.4,1.3,2.4,3.1,2.5,5.2c0,1-0.2,2.1-0.6,3c-0.4,0.9-1,1.7-1.6,2.4c-1.3,1.4-2.8,2.5-4.3,3.4c-1.6,1-3.3,1.7-5.1,2
			c-1.8,0.4-3.6,0.5-5.5,0.4c-1.8-0.1-3.6-0.4-5.4-0.8c-0.9-0.2-1.7-0.4-2.6-0.7c-0.4-0.1-0.9-0.3-1.3-0.4l-0.6-0.3l-0.3-0.1
			l-0.2-0.1C2.8,26.3,2.4,25.9,2.3,25.6z M4.8,24.7c0-0.3-0.3-0.6-0.5-0.6l0.1,0.1l0.3,0.1l0.6,0.3c0.4,0.2,0.8,0.3,1.1,0.5
			c0.8,0.3,1.6,0.6,2.4,0.8c1.6,0.4,3.3,0.8,4.9,0.9c3.3,0.3,6.7-0.2,9.5-1.8c1.4-0.8,2.8-1.9,3.8-3.1c1-1.2,1.7-2.6,1.7-4
			c0-1.4-0.7-2.9-1.7-4.1c-0.5-0.6-1.1-1.1-1.8-1.6c-0.7-0.5-1.4-0.9-2.1-1.1l-0.2,0l-0.1-0.1l0,0c-1.7-1.9-4.2-3.4-6.6-3.4
			c-1.2,0-2.3,0.3-3.4,0.9c-1.1,0.6-2,1.3-2.7,2.2c-1.5,1.9-2.3,4.5-2.9,7.1c-0.3,1.3-0.6,2.7-1,4.1c-0.2,0.6-0.4,1.5-0.7,2.1
			c-0.1,0.3-0.3,0.7-0.4,1c-0.1,0.2-0.1,0.3-0.2,0.5c0,0.1,0,0.1,0,0.2l0,0l0,0l0,0l0-0.1C4.9,25.2,4.9,24.9,4.8,24.7z"/>
	</g>
	<g class="st3">
		<g class="st4">
			<path class="st5" d="M5.6,24.5c3.3-1.7,6.5-3.2,9.3-5.6c1.4-1.1,2.7-2.4,3.9-3.7c1.2-1.3,2.4-2.8,3.4-4.3l0.3,0.1
				c-0.8,1.7-1.8,3.3-3,4.7c-1.1,1.5-2.4,2.8-3.9,4.1C12.8,22.3,9.4,24.2,5.6,24.5L5.6,24.5z"/>
		</g>
		<g class="st4">
			<path class="st5" d="M13.3,8.3C15,7.8,16.8,8,18.5,8.9c1.6,0.9,2.9,2.4,3.3,4.3l0,0L21,12.5c1.6,0.1,3.1,0.7,4.3,1.7
				c1.2,1,2,2.3,2.4,3.7l-0.5,0.2c-0.5-1.3-1.4-2.3-2.5-3c-1.1-0.7-2.4-1-3.6-0.9l-0.6,0l-0.2-0.7l0,0c-0.2-0.7-0.5-1.4-0.9-2
				c-0.4-0.6-0.9-1.2-1.5-1.6C16.6,9,15,8.6,13.4,8.7L13.3,8.3z"/>
		</g>
		<g class="st4">
			<path class="st5" d="M10.5,10.2c1.8-0.5,3.9-0.4,5.6,0.6c1.8,0.9,3.1,2.6,3.8,4.5l0,0l-0.7-0.6c1,0.2,1.7,0.4,2.6,0.8
				c0.8,0.4,1.6,0.8,2.3,1.4c0.7,0.6,1.3,1.2,1.7,2c0.4,0.8,0.6,1.7,0.7,2.5l-0.6,0.2c-0.2-0.8-0.5-1.5-0.9-2.2
				c-0.4-0.6-1-1.1-1.6-1.6c-0.6-0.4-1.4-0.7-2.1-0.9c-0.7-0.2-1.5-0.4-2.2-0.4l-0.6,0l-0.1-0.6l0,0c-0.3-1.6-1.3-3.1-2.7-4.1
				c-1.4-1-3.3-1.4-5.1-1.1L10.5,10.2z"/>
		</g>
		<g class="st4">
			<path class="st5" d="M9.2,12.3c1.7-0.4,3.7-0.1,5.3,0.8c1.6,0.9,2.9,2.5,3.5,4.4l0,0l-0.6-0.6c1.5,0.6,2.9,1.5,3.9,2.7
				c1,1.2,1.7,2.7,1.9,4.2L22.7,24c-0.4-1.4-1.2-2.6-2.2-3.6c-1-0.9-2.3-1.6-3.6-1.9l-0.5-0.1L16.3,18l0,0c-0.3-1.5-1.1-3-2.4-4
				c-1.3-1-3-1.5-4.7-1.3L9.2,12.3z"/>
		</g>
		<g class="st4">
			<path class="st5" d="M8.1,15c1.5-0.2,3.2-0.1,4.6,0.8c0.7,0.4,1.3,1,1.7,1.8c0.4,0.7,0.7,1.5,0.9,2.3l0,0l-0.5-0.6
				c1.4,0.5,2.6,1.4,3.5,2.6c0.9,1.2,1.3,2.5,1.4,3.9l-0.5,0.1c-0.2-1.3-0.8-2.5-1.7-3.3c-0.9-0.9-2-1.5-3.1-1.8L14,20.6l-0.1-0.5
				l0,0c-0.1-0.7-0.3-1.3-0.6-1.9c-0.3-0.6-0.7-1.1-1.2-1.5c-1.1-0.9-2.5-1.2-3.9-1.1L8.1,15z"/>
		</g>
		<g class="st4">
			<path class="st5" d="M7.4,18c0.6-0.1,1.2-0.2,1.8-0.1c0.6,0.1,1.2,0.2,1.8,0.6c0.5,0.3,1,0.8,1.4,1.4c0.4,0.6,0.6,1.2,0.7,1.9
				l-0.8-0.9h0c0.7,0.2,1.3,0.4,1.8,0.8c0.5,0.4,1,0.9,1.3,1.4c0.7,1.1,0.8,2.4,0.5,3.5l-0.6-0.1c0-1-0.3-2.1-0.9-2.8
				c-0.3-0.3-0.7-0.6-1.1-0.8c-0.4-0.2-0.9-0.3-1.3-0.3l0,0L11,22.2l0.1-0.5c0.1-0.4,0.1-0.9-0.1-1.3c-0.1-0.4-0.4-0.9-0.7-1.2
				c-0.4-0.3-0.8-0.6-1.3-0.7c-0.5-0.1-1-0.1-1.5-0.1L7.4,18z"/>
		</g>
		<g class="st4">
			<path class="st5" d="M7.1,20.7c0.7-0.1,1.4,0,2,0.4c0.6,0.4,1,1.2,1.1,2l0,0l-0.6-0.7c0.4,0.1,0.8,0.3,1.2,0.5
				c0.3,0.2,0.6,0.6,0.8,0.9c0.2,0.4,0.3,0.8,0.3,1.1c0,0.4,0,0.7-0.1,1.1L11.2,26c0-0.3,0-0.6-0.1-0.9c-0.1-0.3-0.2-0.5-0.4-0.7
				c-0.2-0.2-0.4-0.3-0.6-0.4c-0.2-0.1-0.5-0.1-0.7-0.1l-0.8,0l0.2-0.8l0,0c0.1-0.4,0-0.9-0.3-1.2c-0.3-0.3-0.8-0.6-1.3-0.6
				L7.1,20.7z"/>
		</g>
		<path class="st6" d="M18.2,7.5c0.4,0.1,1.9,0.5,3,1.9c0.6,0.8,0.8,1.9,0.9,2.3c0.5,0,1.7-0.2,2.6,0.1c1.8,0.6,2.8,2.2,3,2.7"/>
		<path class="st7" d="M22.4,9.3c1.3-1.7,1.7-5.5,2-5.8c1.1,0.8,2.2,1.5,3.3,2.3c-1.4,1.5-2.9,3.6-4.1,4.7
			C23.2,10.9,22.2,9.6,22.4,9.3z"/>
	</g>
	<g class="st1">
		<path class="st5" d="M26.1,22.9c0,1.2-0.6,2.4-1.4,3.2c-0.8,0.8-2,1.3-3.2,1.3c-1.2,0-2.4-0.4-3.3-1.3c-0.9-0.8-1.4-2-1.5-3.3
			c0-1.2,0.5-2.5,1.3-3.4c0.9-0.9,2.1-1.4,3.4-1.4c1.3,0,2.5,0.6,3.3,1.4C25.6,20.5,26.1,21.7,26.1,22.9z M24.7,22.9
			c0-0.8-0.4-1.6-1-2.2c-0.6-0.6-1.4-0.8-2.2-0.8c-0.8,0-1.6,0.3-2.1,0.9c-0.6,0.5-0.9,1.3-1,2.1c0,0.8,0.3,1.6,0.8,2.2
			c0.6,0.6,1.4,1,2.3,1c0.9,0,1.7-0.3,2.3-0.9C24.4,24.6,24.7,23.8,24.7,22.9z"/>
	</g>
</g>
<g id="Layer_2_copy" class="st0">
	<path class="st8" d="M28,12.5c-0.7-0.6-1.5-1.1-2.3-1.5c-0.6-0.3-1.2-0.5-1.9-0.7c1.2-1.1,2.6-3.1,3.9-4.5
		c-1.1-0.8-2.2-1.5-3.3-2.3c-0.3,0.3-0.7,4-1.9,5.7c-0.6-0.8-1.3-1.5-2.1-2.1c-1.2-0.9-2.6-1.5-4.2-1.8c-1.6-0.2-3.2,0.1-4.6,0.7
		C10.3,6.7,9,7.7,8.1,9c-0.9,1.2-1.5,2.6-1.9,4c-0.4,1.4-0.7,2.8-1,4.1c-0.3,1.4-0.5,2.7-0.9,4c-0.2,0.7-0.4,1.2-0.7,1.7
		c-0.2,0.3-0.4,0.5-0.6,0.8l-0.3,0.4l-0.2,0.3l0,0.1l0,0l0,0l0,0.1c-0.1,0.3-0.1,0.7-0.1,1c0.1,0.3,0.5,0.7,0.8,0.8l0.2,0.1l0.3,0.1
		l0.6,0.3c0.4,0.2,0.9,0.3,1.3,0.4c0.9,0.3,1.7,0.5,2.6,0.7c1.8,0.4,3.5,0.7,5.4,0.8c1.8,0.1,3.7,0,5.5-0.4c1.8-0.4,3.6-1.1,5.1-2
		c1.6-0.9,3-2,4.3-3.4c0.6-0.7,1.2-1.5,1.6-2.4c0.4-0.9,0.6-1.9,0.6-3C30.5,15.5,29.4,13.8,28,12.5z M26.8,21.7
		c-1,1.2-2.3,2.3-3.8,3.1c-2.8,1.7-6.2,2.1-9.5,1.8c-1.7-0.1-3.3-0.5-4.9-0.9c-0.8-0.2-1.6-0.5-2.4-0.8c-0.4-0.1-0.8-0.3-1.1-0.5
		l-0.1,0c0.1-0.2,0.2-0.4,0.3-0.7c0.3-0.7,0.6-1.5,0.7-2.1c0.4-1.3,0.7-2.7,1-4.1c0.6-2.6,1.4-5.2,2.9-7.1c0.7-0.9,1.7-1.7,2.7-2.3
		c1-0.5,2.2-0.9,3.4-0.9c1.5,0,3.1,0.6,4.4,1.5c0.2,0.2,0.4,0.4,0.6,0.6c0.5,0.6,0.7,1.4,0.8,1.9c-0.2,0.2-0.4,0.5-0.5,0.7
		c-0.6-1.3-1.7-2.5-2.9-3.2c-1.6-0.9-3.5-1-5.2-0.6l0.1,0.4C15,8.6,16.6,9,17.8,9.9c0.6,0.4,1.1,1,1.5,1.6c0.4,0.6,0.7,1.3,0.9,2
		l0,0l0,0c-0.2,0.3-0.4,0.5-0.7,0.8c-0.7-1.5-1.9-2.8-3.4-3.6c-1.8-0.9-3.8-1.1-5.6-0.6l0.1,0.3c1.8-0.3,3.6,0.1,5.1,1.1
		c1.4,1,2.3,2.5,2.7,4.1c-0.3,0.3-0.5,0.5-0.8,0.8c-0.7-1.4-1.7-2.6-3-3.4c-1.6-1-3.6-1.2-5.3-0.8l0.1,0.3c1.7-0.1,3.4,0.3,4.7,1.3
		c1.2,0.9,2,2.3,2.3,3.8c-0.4,0.3-0.8,0.7-1.2,1c-0.2-0.4-0.3-0.8-0.6-1.2c-0.4-0.7-1.1-1.3-1.7-1.8c-1.4-0.9-3.1-1.1-4.6-0.8l0,0.6
		c1.5-0.1,2.9,0.3,3.9,1.1c0.5,0.4,0.9,0.9,1.2,1.5c0.2,0.5,0.4,1,0.5,1.5c-0.4,0.3-0.8,0.6-1.2,0.8c-0.1-0.3-0.2-0.5-0.4-0.8
		c-0.3-0.6-0.8-1-1.4-1.4c-0.5-0.3-1.2-0.5-1.8-0.6c-0.6,0-1.2,0-1.8,0.1l0.1,0.5c0.5-0.1,1.1-0.1,1.5,0.1c0.5,0.1,1,0.4,1.3,0.7
		c0.4,0.3,0.6,0.7,0.7,1.2c0.1,0.4,0.1,0.8,0.1,1.2c-0.4,0.3-0.8,0.5-1.3,0.7c-0.2-0.4-0.5-0.8-0.8-1.1c-0.6-0.4-1.3-0.5-2-0.4
		l0,0.5c0.5,0,1,0.3,1.3,0.6c0.2,0.3,0.3,0.6,0.3,1c-1,0.5-2.1,1.1-3.2,1.6l0,0.1c1-0.1,2.1-0.3,3.1-0.6l0.7,0c0.2,0,0.5,0,0.7,0.1
		c0.2,0.1,0.4,0.2,0.6,0.4c0.2,0.2,0.3,0.4,0.4,0.7c0.1,0.3,0.1,0.6,0.1,0.9l0.6,0.1c0.1-0.4,0.1-0.7,0.1-1.1c0-0.4-0.1-0.8-0.3-1.1
		c-0.2-0.3-0.4-0.6-0.7-0.8c0.4-0.2,0.7-0.4,1.1-0.5l0,0l-0.2,0c0.4,0,1.2,0.1,1.7,0.3c0.4,0.2,0.8,0.5,1.1,0.8
		c0.6,0.7,0.9,1.7,0.9,2.8l0.6,0.1c0.3-1.1,0.2-2.4-0.5-3.5c-0.3-0.5-0.8-1-1.3-1.4c-0.1-0.1-0.2-0.1-0.3-0.2
		c0.3-0.2,0.6-0.4,0.8-0.6c1.1,0.3,2.2,0.9,3,1.8c0.9,0.9,1.5,2.1,1.7,3.3l0.5-0.1c-0.1-1.4-0.6-2.8-1.4-3.9
		c-0.7-0.9-1.5-1.6-2.5-2.2c0.4-0.4,0.8-0.7,1.2-1.1c1.3,0.3,2.5,0.9,3.5,1.8c1,0.9,1.8,2.2,2.2,3.6l0.5-0.1c-0.2-1.5-0.9-3-1.9-4.2
		c-0.8-1-1.9-1.8-3-2.3c0.3-0.3,0.6-0.6,0.8-0.9l0,0c0.7,0,1.5,0.2,2.2,0.4c0.7,0.2,1.5,0.5,2.1,0.9c0.6,0.4,1.2,0.9,1.6,1.6
		c0.4,0.6,0.7,1.3,0.9,2.2l0.6-0.2c-0.1-0.8-0.3-1.7-0.7-2.5c-0.4-0.8-1-1.5-1.7-2c-0.7-0.6-1.5-1-2.3-1.4c-0.5-0.2-1-0.4-1.6-0.6
		c0.2-0.2,0.3-0.5,0.5-0.7l0.3,0c1.2-0.1,2.5,0.2,3.6,0.9c1.1,0.7,2,1.8,2.5,3l0.5-0.2c-0.4-1.4-1.2-2.7-2.4-3.7
		c-1-0.8-2.2-1.4-3.6-1.6c0.2-0.3,0.3-0.6,0.5-0.9l0.2,0c0.6,0,1.6-0.1,2.3,0.1c0.2,0.1,0.3,0.1,0.5,0.2c0.7,0.5,1.3,0.9,1.7,1.5
		c1,1.2,1.7,2.7,1.7,4.1C28.5,19.1,27.9,20.5,26.8,21.7z"/>
</g>
<g id="Layer_2_copy_2">
	<path class="st9" d="M21.8,26.7c-0.4,0-1-0.1-1.4-0.3c-0.2-0.1-0.5-0.3-0.8-0.5c-0.2-0.1-0.4-0.3-0.6-0.5c-0.1-0.1-0.1-0.1-0.2-0.2
		c-0.4-0.4-0.6-1-0.7-1.5c0-0.3-0.1-0.5-0.1-0.8c0-0.3,0.1-0.6,0.2-0.9c0.2-0.6,0.5-1.1,0.9-1.5c0.3-0.3,0.6-0.5,1-0.6
		c0.4-0.2,0.9-0.3,1.4-0.3c0,0,0,0,0,0c0.9,0,1.7,0.3,2.4,0.9c0.7,0.6,1.1,1.5,1.1,2.4c0,0.3,0,0.6-0.1,1c-0.1,0.6-0.4,1.2-0.8,1.7
		c-0.1,0.1-0.1,0.1-0.2,0.2l0.1,0.6c0.2,0,0.7,0,0.8-0.1c0.3-0.1,0.7-0.3,1-0.5c1.4-0.9,2.1-1.5,3.2-2.8c0.7-0.8,1.3-1.6,1.8-2.6
		c0.5-1,0.7-2.1,0.7-3.2c-0.1-2.3-1.3-4.2-2.8-5.7c-0.8-0.7-1.7-1.3-2.6-1.7c-0.6-0.3-1.3-0.6-2.1-0.7c1.3-1.3,2.8-3.4,4.3-4.9
		c-1.2-0.8-2.4-1.7-3.6-2.5C24.5,2,24.1,6,22.7,7.9c-0.6-0.9-1.4-1.6-2.3-2.3c-1.3-1-2.8-1.7-4.5-1.9c-1.7-0.2-3.5,0.1-5,0.8
		C9.3,5.2,7.9,6.4,6.9,7.7c-1,1.4-1.7,2.9-2.1,4.4c-0.5,1.5-0.8,3-1.1,4.5c-0.3,1.5-0.6,2.9-1,4.3c-0.2,0.8-0.4,1.3-0.8,1.9
		c-0.2,0.3-0.4,0.6-0.6,0.9L1,24.2l-0.2,0.3l-0.1,0.1l0,0l0,0l-0.1,0.1c-0.1,0.3-0.2,0.8-0.1,1.1c0.2,0.3,0.6,0.7,0.9,0.9l0.2,0.1
		L2,27l0.7,0.3c0.5,0.2,0.9,0.3,1.4,0.5C5,28,6,28.3,6.9,28.5c1.9,0.5,3.9,0.8,5.9,0.9c2,0.1,3.9-0.1,5.9-0.5
		c1.2-0.3,2.7-0.9,3.5-1.6L21.8,26.7z M18.3,26.8c-1.8,0.3-3.6,0.4-5.4,0.2c-1.8-0.2-3.6-0.5-5.4-1c-0.9-0.3-1.7-0.5-2.6-0.9
		c-0.4-0.2-0.8-0.3-1.3-0.5l-0.1,0c0.1-0.2,0.2-0.5,0.3-0.7c0.3-0.7,0.6-1.6,0.8-2.3c0.4-1.5,0.8-3,1.1-4.4c0.7-2.9,1.6-5.7,3.2-7.8
		c0.8-1,1.8-1.9,3-2.5c1.1-0.6,2.4-1,3.7-1c1.7,0,3.4,0.6,4.9,1.7c0.2,0.2,0.4,0.4,0.6,0.6c0.5,0.7,0.8,1.6,0.9,2.1
		c-0.2,0.3-0.4,0.5-0.6,0.8c-0.7-1.5-1.8-2.7-3.2-3.5c-1.8-1-3.8-1.1-5.6-0.6l0.1,0.4c1.8-0.1,3.5,0.4,4.8,1.3
		c0.7,0.5,1.2,1.1,1.7,1.8c0.4,0.7,0.8,1.4,1,2.2l0,0l0,0c-0.2,0.3-0.5,0.6-0.7,0.8c-0.8-1.7-2.1-3.1-3.7-3.9
		c-1.9-1-4.2-1.2-6.2-0.6l0.1,0.4c2-0.3,4,0.1,5.5,1.2c1.5,1,2.6,2.7,2.9,4.4c-0.3,0.3-0.6,0.6-0.9,0.9c-0.7-1.6-1.9-2.9-3.3-3.7
		c-1.8-1-3.9-1.3-5.8-0.9l0.1,0.4c1.8-0.2,3.7,0.4,5.1,1.5c1.3,1,2.2,2.5,2.5,4.1c-0.4,0.4-0.8,0.8-1.3,1.1
		c-0.2-0.4-0.4-0.9-0.6-1.3c-0.5-0.8-1.1-1.4-1.9-1.9c-1.5-1-3.4-1.2-5-0.9l0,0.6c1.6-0.1,3.2,0.3,4.3,1.2c0.6,0.5,1,1,1.4,1.7
		c0.3,0.5,0.4,1.1,0.5,1.7c-0.4,0.3-0.8,0.6-1.3,0.9c-0.1-0.3-0.3-0.6-0.4-0.9c-0.4-0.6-0.9-1.1-1.5-1.5c-0.6-0.4-1.3-0.5-1.9-0.6
		c-0.7-0.1-1.3,0-1.9,0.1L6.3,18C6.9,17.9,7.5,18,8,18.1c0.5,0.1,1,0.4,1.4,0.7c0.4,0.3,0.7,0.8,0.8,1.3c0.1,0.4,0.1,0.9,0.1,1.3
		c-0.5,0.3-0.9,0.5-1.4,0.8C8.7,21.7,8.4,21.3,8,21c-0.7-0.5-1.5-0.6-2.2-0.5l0,0.6c0.6,0,1.1,0.3,1.4,0.7c0.2,0.3,0.4,0.7,0.3,1.1
		c-1.1,0.6-2.3,1.2-3.4,1.8l0,0.1c1.1-0.1,2.3-0.4,3.4-0.7l0.7,0c0.2,0,0.5,0,0.8,0.1c0.3,0.1,0.5,0.3,0.7,0.5
		c0.2,0.2,0.3,0.5,0.4,0.8c0.1,0.3,0.1,0.7,0.1,0.9l0.6,0.1C11,26,11,25.6,11,25.2c0-0.4-0.1-0.8-0.4-1.2c-0.2-0.3-0.5-0.6-0.8-0.9
		c0.4-0.2,0.7-0.4,1.1-0.5c0.5,0,1.2,0.1,1.6,0.3c0.5,0.2,0.9,0.5,1.2,0.9c0.7,0.7,1,1.9,1,3l0.7,0.1c0.3-1.2,0.2-2.7-0.6-3.9
		c-0.4-0.6-0.9-1.1-1.4-1.5c-0.1-0.1-0.2-0.1-0.3-0.2c0.3-0.2,0.6-0.4,0.9-0.7c0.9,0.2,1.8,0.6,2.5,1.2c-0.1,0.4-0.1,0.8-0.1,1.2
		c0,1.3,0.6,2.7,1.6,3.6C18.1,26.6,18.2,26.7,18.3,26.8z M17.9,19.3c-0.4,0.4-0.7,0.8-0.9,1.3c-0.5-0.4-1-0.8-1.6-1.1
		c0.4-0.4,0.9-0.8,1.3-1.2c0.6,0.1,1.2,0.3,1.7,0.6C18.2,19,18,19.1,17.9,19.3z M27.4,21.6c-0.3,0.3-0.6,0.6-0.9,0.9
		c-0.1-1.2-0.5-2.4-1.4-3.2c-0.9-1-2.3-1.6-3.6-1.6c-0.6,0-1.1,0.1-1.6,0.3c-0.6-0.5-1.2-0.9-1.9-1.2c0.3-0.3,0.6-0.7,0.9-1l0,0
		c0.7,0,1.6,0.2,2.4,0.5c0.8,0.3,1.6,0.6,2.3,1c0.7,0.4,1.3,1,1.8,1.7c0.5,0.7,0.8,1.5,1,2.4l0.6-0.2c-0.1-0.8-0.3-1.8-0.8-2.7
		c-0.5-0.9-1.1-1.6-1.9-2.2c-0.8-0.6-1.6-1.1-2.5-1.5c-0.6-0.2-1.1-0.4-1.7-0.6c0.2-0.3,0.4-0.5,0.6-0.8l0.3,0c1.4-0.1,2.8,0.2,4,1
		c1.2,0.7,2.2,1.9,2.7,3.3l0.6-0.2c-0.4-1.5-1.3-3-2.6-4.1c-1.1-0.9-2.5-1.5-3.9-1.7c0.2-0.3,0.3-0.6,0.5-0.9l0.2,0
		c0.6,0,1.7-0.1,2.5,0.1c0.2,0.1,0.3,0.1,0.5,0.2c0.7,0.5,1.4,1,1.9,1.7c1.1,1.3,1.8,2.9,1.8,4.5C29.3,18.7,28.5,20.3,27.4,21.6z"/>
</g>
</svg>
