<?xml version="1.0" encoding="utf-8"?>
<!-- Generator: Adobe Illustrator 24.1.2, SVG Export Plug-In . SVG Version: 6.00 Build 0)  -->
<svg version="1.1" id="Layer_1" xmlns="http://www.w3.org/2000/svg" xmlns:xlink="http://www.w3.org/1999/xlink" x="0px" y="0px" viewBox="0 0 672.6 188.6" style="enable-background:new 0 0 672.6 188.6;" xml:space="preserve" preserveAspectRatio="none">
<style type="text/css">
	.st0{fill:#FFF9E5;}
</style>
<path class="st0" d="M329.1,1.1c-19.7-0.5-129.3-3.2-226.6,2.5c-15.1,0.9-52,8.6-81,26.6C11.2,36.5,0.4,49.8,0,70.7
	c-0.2,14.9,5.7,21.8,14.3,38c1.7,3.3,6,7,7.2,12.6c2.1,9.1-1.4,12.8-1.3,24.1c0.1,6.2,0.2,12.9,3.8,19c3.8,6.5,10.9,10.9,22.8,13.9
	c34.1,8.6,123.2,10.1,127.8,10.1c53.6,0.3,107.2,0.3,160.8,0c83.5-0.5,167.1-1.8,250.6-3.8c24.8-0.2,41.1-7.1,49.4-11.4
	c11.5-6,14.9-11,16.5-15.2c2-5.6,1.2-11.2,0-19c-1.8-12-4.6-13.1-3.8-19c1-7.8,6.3-10.2,12.7-19c0,0,9.1-12.7,11.4-27.8
	c2.6-17.1-6-34.9-16.5-45.6c-6.6-6.7-17.7-14.3-75.9-19c-25.2-2-46.8-2.6-63.3-2.5C454,4.4,391.6,2.7,329.1,1.1z"/>
</svg>
